<svg width="66" height="62" viewBox="0 0 66 62" fill="none" xmlns="http://www.w3.org/2000/svg">
<path fill-rule="evenodd" clip-rule="evenodd" d="M25.5771 0.158452C22.4427 0.894243 20.1223 3.70922 20.1223 6.77603V8.00008H13.3299C5.08285 8.00008 4.38397 8.13457 2.26399 10.1285C-0.119182 12.3697 0.00100902 11.0492 0.00100902 34.9993C0.00100902 58.9493 -0.119182 57.6289 2.26399 59.8701C4.67104 62.1342 2.71149 61.9984 33 61.9984C63.2885 61.9984 61.329 62.1342 63.736 59.8701C66.1192 57.6289 65.999 58.9493 65.999 34.9993C65.999 11.0492 66.1192 12.3697 63.736 10.1285C61.616 8.13457 60.9171 8.00008 52.6701 8.00008H45.8777V6.65264C45.8777 4.98929 44.636 2.48063 43.3732 1.59193C41.1762 0.0459134 41.2361 0.0555023 33.5366 0.00528885C29.6263 -0.0201964 26.0445 0.0489414 25.5771 0.158452ZM40.9624 3.35521C42.2609 4.26081 42.9265 5.42001 42.9265 6.77578V8.00008H33H23.0735V6.85198C23.0735 5.11999 24.1217 3.60653 25.7566 2.97848C26.166 2.82103 29.108 2.74154 33.3163 2.77409C39.8388 2.82456 40.2458 2.85534 40.9624 3.35521ZM60.6435 11.3434C62.507 12.2273 63.0508 13.4728 63.0361 16.822L63.0242 19.481L52.6991 25.5369C47.0203 28.8677 42.0457 31.7296 41.6441 31.8969C41.2428 32.0642 40.4014 32.206 39.7742 32.2123L38.634 32.2236V30.1949C38.634 27.8182 38.128 26.6441 36.5891 25.4511C34.5416 23.8637 31.4584 23.8637 29.4109 25.4511C27.8656 26.6492 27.366 27.8157 27.366 30.2262V32.2862L25.9165 32.1732C24.5705 32.0682 23.7015 31.612 13.7205 25.7706L2.97387 19.481L2.96287 16.822C2.94946 13.4726 3.49354 12.2271 5.3565 11.3434L6.55359 10.7757H33H59.4464L60.6435 11.3434ZM23.2076 34.4002C24.0661 34.7805 25.0432 34.9952 25.9221 34.9967L27.2955 34.9993L27.4452 36.0505C27.6453 37.4524 28.8416 38.9906 30.2922 39.711C33.6433 41.3749 38.0754 39.4112 38.5548 36.0505L38.7045 34.9993H39.9706C40.667 34.9993 41.6471 34.8663 42.1488 34.704C42.6502 34.5415 47.5576 31.7659 53.0543 28.5359L63.0479 22.6629V35.5178V48.3727H33H2.95214V35.5168V22.6609L12.4092 28.2336C17.6107 31.2984 22.4698 34.0735 23.2076 34.4002ZM34.5289 27.4188C35.7279 28.1064 36.0367 29.3733 35.8991 33.0414C35.7918 35.8981 35.7601 36.031 35.0145 36.7633C34.3728 37.3931 34.0297 37.5225 33 37.5225C31.9703 37.5225 31.6272 37.3931 30.9855 36.7633C30.2399 36.031 30.2082 35.8981 30.1009 33.0414C29.9633 29.3733 30.2721 28.1064 31.471 27.4188C31.943 27.148 32.6311 26.9265 33 26.9265C33.3689 26.9265 34.057 27.148 34.5289 27.4188ZM63.0479 53.4919C63.0479 56.4992 62.441 57.8027 60.6435 58.6551L59.4464 59.2228H33H6.55359L5.3565 58.6551C3.559 57.8027 2.95214 56.4992 2.95214 53.4919V51.1483H33H63.0479V53.4919Z" fill="#109CF8"/>
</svg>
