<svg width="24" height="24" viewBox="0 0 24 24" fill="none" xmlns="http://www.w3.org/2000/svg">
<path fill-rule="evenodd" clip-rule="evenodd" d="M0.568073 0.160868C0.460154 0.268786 0.347168 0.455439 0.316951 0.575651C0.26759 0.772345 2.24063 9.86793 2.35812 9.98552C2.38411 10.0114 4.90275 10.4644 7.95498 10.9921C11.0073 11.5197 13.5047 11.9726 13.5048 11.9985C13.5049 12.0244 11.0061 12.4773 7.95188 13.005C4.89759 13.5326 2.37417 14.004 2.34404 14.0526C2.31401 14.1013 1.82997 16.1969 1.26842 18.7095C0.269748 23.1776 0.250604 23.285 0.398312 23.5947C0.568636 23.9518 0.890704 24.0795 1.29807 23.9515C1.73266 23.815 23.2973 12.7379 23.4971 12.5485C23.7306 12.3273 23.7496 11.6924 23.5293 11.472C23.2632 11.2059 1.46389 0.068339 1.10523 0.0152242C0.840216 -0.024002 0.720473 0.00846754 0.568073 0.160868Z" fill="white"/>
</svg>
