<svg width="136" height="41" viewBox="0 0 136 41" fill="none" xmlns="http://www.w3.org/2000/svg">
<path d="M135.103 35.5688C135.103 36.074 135.003 36.5741 134.81 37.0408C134.616 37.5074 134.332 37.9313 133.975 38.2883C133.618 38.6453 133.193 38.9284 132.726 39.1213C132.259 39.3142 131.759 39.4133 131.254 39.4127H5.29538C4.27448 39.4138 3.29496 39.0095 2.57223 38.2886C1.84949 37.5678 1.44274 36.5895 1.44141 35.5688V4.91485C1.44274 3.89376 1.84933 2.91494 2.57192 2.19329C3.29451 1.47165 4.27402 1.06618 5.29538 1.06592H131.253C131.758 1.06592 132.259 1.16548 132.726 1.35892C133.193 1.55236 133.617 1.83589 133.975 2.19331C134.332 2.55073 134.616 2.97504 134.809 3.442C135.002 3.90897 135.102 4.40945 135.102 4.91485L135.103 35.5688Z" fill="white"/>
<path d="M131.253 40.3067H5.29431C4.03669 40.3064 2.83053 39.8074 1.9405 38.9191C1.05047 38.0308 0.549268 36.8258 0.546875 35.5685L0.546875 4.91553C0.548735 3.65762 1.0496 2.4518 1.93961 1.5626C2.82961 0.673396 4.03606 0.173425 5.29431 0.172363L131.252 0.172363C132.51 0.173955 133.716 0.674096 134.606 1.56318C135.496 2.45227 135.997 3.65778 135.999 4.91553V35.5685C136.001 38.182 133.868 40.3067 131.253 40.3067Z" fill="#A6A6A6"/>
<path d="M135.103 35.5688C135.103 36.074 135.003 36.5741 134.81 37.0408C134.616 37.5074 134.332 37.9313 133.975 38.2883C133.618 38.6453 133.193 38.9284 132.726 39.1213C132.259 39.3142 131.759 39.4133 131.254 39.4127H5.29538C4.27448 39.4138 3.29496 39.0095 2.57223 38.2886C1.84949 37.5678 1.44274 36.5895 1.44141 35.5688V4.91485C1.44274 3.89376 1.84933 2.91494 2.57192 2.19329C3.29451 1.47165 4.27402 1.06618 5.29538 1.06592H131.253C131.758 1.06592 132.259 1.16548 132.726 1.35892C133.193 1.55236 133.617 1.83589 133.975 2.19331C134.332 2.55073 134.616 2.97504 134.809 3.442C135.002 3.90897 135.102 4.40945 135.102 4.91485L135.103 35.5688Z" fill="black"/>
<path d="M30.7924 20.0279C30.7633 16.7932 33.4417 15.2195 33.5641 15.1462C32.0472 12.9352 29.6961 12.6331 28.8699 12.6091C26.8952 12.4013 24.9798 13.7903 23.9739 13.7903C22.9479 13.7903 21.3989 12.6291 19.7294 12.6633C17.5811 12.6964 15.5712 13.9399 14.469 15.8709C12.1941 19.8081 13.8907 25.5941 16.0702 28.7766C17.1604 30.3362 18.4344 32.0755 20.1018 32.0143C21.7332 31.9481 22.3425 30.9755 24.3112 30.9755C26.2618 30.9755 26.834 32.0143 28.5346 31.9752C30.2854 31.9481 31.3877 30.4095 32.4398 28.8368C33.6997 27.0513 34.2056 25.291 34.2257 25.2006C34.1855 25.1866 30.8265 23.9039 30.7924 20.0279ZM27.5799 10.5155C28.4573 9.41851 29.0576 7.9261 28.891 6.41162C27.621 6.46782 26.0329 7.2898 25.1183 8.36268C24.3092 9.30811 23.5864 10.8577 23.7731 12.315C25.1996 12.4214 26.6643 11.5954 27.5799 10.5155Z" fill="white"/>
<path d="M131.252 0.172363H63.7852L90.2108 40.3067H131.252C132.51 40.3056 133.716 39.8059 134.606 38.9171C135.496 38.0284 135.997 36.8231 136 35.5655V4.91553C135.998 3.6577 135.497 2.45203 134.607 1.56289C133.717 0.673746 132.51 0.17369 131.252 0.172363V0.172363Z" fill="url(#paint0_linear_747_393)"/>
<path d="M54.4214 31.7909H52.1415L50.8927 27.8677H46.5518L45.3622 31.7909H43.1426L47.4443 18.4345H50.1006L54.4214 31.7909ZM50.5162 26.2217L49.3868 22.7341C49.2674 22.3778 49.0425 21.5388 48.7132 20.218H48.6731C48.5405 20.786 48.3287 21.6251 48.0386 22.7341L46.9283 26.2217H50.5162ZM65.4623 26.857C65.4623 28.495 65.0175 29.7896 64.1271 30.7401C63.33 31.5861 62.3391 32.0087 61.1576 32.0087C59.8816 32.0087 58.964 31.554 58.4069 30.6427V35.696H56.2666V25.3255C56.2666 24.2968 56.2394 23.2419 56.1872 22.16H58.0696L58.189 23.6865H58.2292C58.9429 22.5364 60.0262 21.9613 61.4798 21.9613C62.6162 21.9613 63.5649 22.4099 64.3238 23.3082C65.0818 24.2084 65.4623 25.3907 65.4623 26.857ZM63.2818 26.9353C63.2818 25.9979 63.071 25.2251 62.6473 24.6159C62.1845 23.9826 61.5631 23.6655 60.7841 23.6655C60.256 23.6655 59.7762 23.8421 59.3475 24.1904C58.9179 24.5416 58.6368 25.0003 58.5053 25.5684C58.4465 25.7808 58.4132 25.9994 58.4059 26.2197V27.8265C58.4059 28.5261 58.6207 29.1172 59.0504 29.601C59.48 30.0827 60.0382 30.3246 60.7249 30.3246C61.531 30.3246 62.1584 30.0124 62.6072 29.3932C63.0569 28.772 63.2818 27.953 63.2818 26.9353ZM76.5423 26.857C76.5423 28.495 76.0976 29.7896 75.2071 30.7401C74.409 31.5861 73.4192 32.0087 72.2366 32.0087C70.9606 32.0087 70.0431 31.554 69.4859 30.6427V35.696H67.3456V25.3255C67.3456 24.2968 67.3185 23.2419 67.2663 22.16H69.1486L69.2681 23.6865H69.3082C70.021 22.5364 71.1042 21.9613 72.5588 21.9613C73.6942 21.9613 74.6429 22.4099 75.4039 23.3082C76.1608 24.2084 76.5423 25.3907 76.5423 26.857ZM74.3608 26.9353C74.3608 25.9979 74.149 25.2251 73.7254 24.6159C73.2626 23.9826 72.6432 23.6655 71.8641 23.6655C71.3361 23.6655 70.8562 23.8421 70.4256 24.1904C69.9959 24.5416 69.7158 25.0003 69.5843 25.5684C69.519 25.8333 69.4839 26.0491 69.4839 26.2197V27.8265C69.4839 28.5261 69.6997 29.1172 70.1274 29.601C70.5571 30.0817 71.1152 30.3246 71.8039 30.3246C72.611 30.3246 73.2385 30.0124 73.6862 29.3932C74.136 28.772 74.3608 27.953 74.3608 26.9353ZM88.9304 28.0443C88.9304 29.1814 88.5329 30.1058 87.7428 30.8194C86.8734 31.5982 85.6597 31.9886 84.1037 31.9886C82.6661 31.9886 81.5136 31.7116 80.6442 31.1566L81.1392 29.3731C82.0778 29.9291 83.1088 30.2061 84.2312 30.2061C85.0383 30.2061 85.6657 30.0235 86.1135 29.6612C86.5622 29.2979 86.7891 28.8121 86.7891 28.2059C86.7891 27.6629 86.6014 27.2083 86.2329 26.838C85.8625 26.4686 85.2501 26.1244 84.3898 25.8082C82.0507 24.9361 80.8802 23.6605 80.8802 21.9824C80.8802 20.8864 81.2938 19.9892 82.119 19.2876C82.9442 18.5871 84.0384 18.2368 85.3997 18.2368C86.6154 18.2368 87.6284 18.4486 88.4325 18.8711L87.8954 20.6154C87.1385 20.2059 86.2842 20.0012 85.3284 20.0012C84.5735 20.0012 83.9812 20.1869 83.5576 20.5562C83.2012 20.8864 83.0205 21.2889 83.0205 21.7666C83.0205 22.2935 83.2263 22.7311 83.6359 23.0743C83.9912 23.3905 84.6398 23.7347 85.5774 24.1041C86.7279 24.5677 87.5732 25.1077 88.1143 25.7279C88.6594 26.3482 88.9304 27.122 88.9304 28.0443ZM96.025 23.7658H93.6658V28.4418C93.6658 29.6311 94.0814 30.2242 94.9147 30.2242C95.2972 30.2242 95.6144 30.1921 95.8654 30.1249L95.9246 31.7497C95.503 31.9073 94.9478 31.9866 94.2601 31.9866C93.4148 31.9866 92.7543 31.7287 92.2774 31.2128C91.8026 30.6969 91.5637 29.8328 91.5637 28.6164V23.7618H90.1582V22.156H91.5637V20.3926L93.6658 19.7583V22.156H96.025V23.7658ZM106.648 26.8962C106.648 28.3765 106.225 29.5919 105.379 30.5424C104.495 31.5209 103.318 32.0087 101.852 32.0087C100.436 32.0087 99.3107 31.54 98.4715 30.6036C97.6322 29.6652 97.2126 28.4829 97.2126 27.0567C97.2126 25.5643 97.6463 24.3419 98.5106 23.3915C99.377 22.44 100.544 21.9643 102.01 21.9643C103.424 21.9643 104.559 22.434 105.418 23.3714C106.24 24.2807 106.648 25.4549 106.648 26.8962ZM104.43 26.9453C104.43 26.0631 104.239 25.3064 103.856 24.6731C103.408 23.9083 102.765 23.526 101.933 23.526C101.076 23.526 100.418 23.9083 99.9703 24.6731C99.5868 25.3064 99.3961 26.0762 99.3961 26.9855C99.3961 27.8687 99.5868 28.6274 99.9703 29.2587C100.433 30.0235 101.079 30.4059 101.915 30.4059C102.733 30.4059 103.375 30.0155 103.838 29.2396C104.232 28.5913 104.43 27.8295 104.43 26.9453ZM113.608 24.0418C113.386 24.0017 113.16 23.9818 112.934 23.9826C112.181 23.9826 111.598 24.2656 111.189 24.8357C110.834 25.3375 110.655 25.9718 110.655 26.7376V31.7909H108.514V25.193C108.516 24.182 108.496 23.1711 108.452 22.161H110.316L110.395 24.0037H110.454C110.681 23.3704 111.036 22.8596 111.524 22.4772C111.971 22.143 112.513 21.9621 113.071 21.9613C113.269 21.9613 113.448 21.9754 113.606 22.0004L113.608 24.0418ZM123.18 26.5198C123.186 26.8451 123.16 27.1701 123.102 27.4903H116.681C116.705 28.4418 117.017 29.1704 117.613 29.6722C118.154 30.1198 118.854 30.3446 119.713 30.3446C120.664 30.3446 121.531 30.1941 122.311 29.89L122.646 31.3744C121.735 31.7718 120.659 31.9695 119.417 31.9695C117.923 31.9695 116.75 31.5299 115.897 30.6528C115.046 29.7746 114.619 28.5943 114.619 27.116C114.619 25.6647 115.016 24.4553 115.81 23.4908C116.641 22.4611 117.764 21.9462 119.178 21.9462C120.566 21.9462 121.617 22.4611 122.331 23.4908C122.896 24.3068 123.18 25.3185 123.18 26.5198ZM121.14 25.9648C121.155 25.3295 121.014 24.7825 120.724 24.3198C120.353 23.7237 119.783 23.4266 119.019 23.4266C118.32 23.4266 117.749 23.7167 117.316 24.2988C116.959 24.7614 116.747 25.3175 116.682 25.9628L121.14 25.9648Z" fill="white"/>
<path d="M45.9335 13.7127C45.3382 13.7127 44.8232 13.6836 44.3945 13.6344V7.17706C44.9941 7.08447 45.5999 7.03883 46.2066 7.04057C48.6611 7.04057 49.7915 8.24794 49.7915 10.2161C49.7915 12.4863 48.4563 13.7127 45.9335 13.7127ZM46.2929 7.86856C45.9616 7.86856 45.6795 7.88864 45.4456 7.93681V12.8456C45.5721 12.8657 45.815 12.8747 46.1564 12.8747C47.7646 12.8747 48.6802 11.9594 48.6802 10.2452C48.6802 8.71663 47.852 7.86856 46.2929 7.86856ZM53.3142 13.7619C51.9308 13.7619 51.0343 12.7292 51.0343 11.3271C51.0343 9.86579 51.9499 8.82402 53.3925 8.82402C54.7558 8.82402 55.6723 9.80758 55.6723 11.2498C55.6723 12.7292 54.7277 13.7619 53.3142 13.7619ZM53.3543 9.59281C52.5944 9.59281 52.1075 10.3034 52.1075 11.297C52.1075 12.2715 52.6044 12.9821 53.3443 12.9821C54.0842 12.9821 54.5811 12.2223 54.5811 11.2769C54.5811 10.3134 54.0942 9.59281 53.3543 9.59281ZM63.561 8.92137L62.0802 13.6545H61.1155L60.5021 11.5991C60.3496 11.0963 60.2226 10.5861 60.1216 10.0705H60.1015C60.0242 10.5864 59.8777 11.1033 59.7221 11.5991L59.0695 13.6545H58.0947L56.7013 8.92137H57.7825L58.3186 11.1715C58.4451 11.7075 58.5515 12.2133 58.6399 12.691H58.6599C58.7372 12.2926 58.8637 11.7948 59.0495 11.1816L59.7221 8.92238H60.5794L61.2229 11.1334C61.3785 11.6693 61.505 12.1952 61.6034 12.692H61.6315C61.6997 12.2053 61.8072 11.6884 61.9527 11.1334L62.528 8.92238L63.561 8.92137ZM69.0121 13.6545H67.9601V10.9367C67.9601 10.0996 67.6388 9.68012 67.0054 9.68012C66.3819 9.68012 65.9533 10.2161 65.9533 10.8393V13.6545H64.9012V10.2743C64.9012 9.85576 64.8911 9.40713 64.862 8.92037H65.7876L65.8368 9.65102H65.8659C66.149 9.14519 66.7233 8.82402 67.3668 8.82402C68.3606 8.82402 69.0131 9.58377 69.0131 10.8202L69.0121 13.6545ZM71.9134 13.6545H70.8603V6.74951H71.9134V13.6545ZM75.7493 13.7619C74.367 13.7619 73.4695 12.7292 73.4695 11.3271C73.4695 9.86579 74.385 8.82402 75.8266 8.82402C77.1909 8.82402 78.1065 9.80758 78.1065 11.2498C78.1075 12.7292 77.1618 13.7619 75.7493 13.7619ZM75.7885 9.59281C75.0285 9.59281 74.5416 10.3034 74.5416 11.297C74.5416 12.2715 75.0396 12.9821 75.7774 12.9821C76.5183 12.9821 77.0142 12.2223 77.0142 11.2769C77.0152 10.3134 76.5293 9.59281 75.7885 9.59281ZM82.2546 13.6545L82.1783 13.1095H82.1502C81.8289 13.5481 81.3601 13.7619 80.7658 13.7619C79.9175 13.7619 79.3152 13.1677 79.3152 12.3689C79.3152 11.2006 80.3281 10.5964 82.0819 10.5964V10.5091C82.0819 9.88587 81.7516 9.57374 81.0991 9.57374C80.6323 9.57374 80.2227 9.69116 79.8623 9.92501L79.6485 9.2335C80.0862 8.96052 80.6323 8.82402 81.2738 8.82402C82.5106 8.82402 83.135 9.47638 83.135 10.7821V12.5254C83.135 13.0032 83.1561 13.3735 83.2033 13.6555L82.2546 13.6545ZM82.11 11.297C80.9415 11.297 80.3552 11.58 80.3552 12.2514C80.3552 12.7482 80.6574 12.9911 81.077 12.9911C81.6121 12.9911 82.11 12.5826 82.11 12.0276V11.297ZM88.2439 13.6545L88.1947 12.8948H88.1655C87.8634 13.4688 87.3554 13.7619 86.6456 13.7619C85.5042 13.7619 84.6589 12.7583 84.6589 11.3462C84.6589 9.86579 85.5353 8.82302 86.732 8.82302C87.3654 8.82302 87.8142 9.03679 88.0672 9.46635H88.0882V6.74951H89.1413V12.3789C89.1413 12.8365 89.1524 13.2651 89.1805 13.6545H88.2439ZM88.0882 10.8694C88.0882 10.207 87.6495 9.64198 86.9799 9.64198C86.1999 9.64198 85.7231 10.3335 85.7231 11.307C85.7231 12.2615 86.218 12.9148 86.9589 12.9148C87.6204 12.9148 88.0882 12.3398 88.0882 11.6583V10.8694ZM95.8183 13.7619C94.4359 13.7619 93.5394 12.7292 93.5394 11.3271C93.5394 9.86579 94.455 8.82402 95.8966 8.82402C97.2609 8.82402 98.1764 9.80758 98.1764 11.2498C98.1774 12.7292 97.2328 13.7619 95.8183 13.7619ZM95.8574 9.59281C95.0985 9.59281 94.6116 10.3034 94.6116 11.297C94.6116 12.2715 95.1085 12.9821 95.8474 12.9821C96.5883 12.9821 97.0842 12.2223 97.0842 11.2769C97.0862 10.3134 96.5993 9.59281 95.8574 9.59281ZM103.834 13.6545H102.781V10.9367C102.781 10.0996 102.46 9.68012 101.827 9.68012C101.203 9.68012 100.776 10.2161 100.776 10.8393V13.6545H99.7224V10.2743C99.7224 9.85576 99.7124 9.40713 99.6833 8.92037H100.609L100.658 9.65102H100.687C100.969 9.14519 101.545 8.82302 102.187 8.82302C103.181 8.82302 103.834 9.58277 103.834 10.8192V13.6545ZM110.913 9.71023H109.755V12.0086C109.755 12.5937 109.958 12.8857 110.368 12.8857C110.553 12.8857 110.709 12.8657 110.835 12.8365L110.864 13.6354C110.66 13.7137 110.387 13.7529 110.048 13.7529C109.218 13.7529 108.722 13.2952 108.722 12.0969V9.71023H108.032V8.92137H108.722V8.05424L109.755 7.74211V8.92037H110.913V9.71023ZM116.483 13.6545H115.431V10.9567C115.431 10.1097 115.111 9.68113 114.477 9.68113C113.932 9.68113 113.424 10.0515 113.424 10.8012V13.6545H112.373V6.74951H113.424V9.59281H113.445C113.776 9.07694 114.256 8.82302 114.868 8.82302C115.87 8.82302 116.483 9.60184 116.483 10.8393V13.6545ZM122.189 11.5409H119.031C119.052 12.4371 119.645 12.9429 120.523 12.9429C120.99 12.9429 121.42 12.8647 121.799 12.7191L121.963 13.4498C121.515 13.6445 120.988 13.7418 120.375 13.7418C118.894 13.7418 118.017 12.8064 118.017 11.3562C118.017 9.90494 118.915 8.81399 120.256 8.81399C121.466 8.81399 122.225 9.71023 122.225 11.0641C122.232 11.2239 122.22 11.3839 122.189 11.5409ZM121.224 10.7911C121.224 10.0605 120.856 9.54463 120.183 9.54463C119.579 9.54463 119.101 10.0705 119.032 10.7911H121.224Z" fill="white"/>
<defs>
<linearGradient id="paint0_linear_747_393" x1="99.8913" y1="40.4132" x2="99.8913" y2="-104.33" gradientUnits="userSpaceOnUse">
<stop stop-color="#1A1A1A" stop-opacity="0.1"/>
<stop offset="0.123" stop-color="#212121" stop-opacity="0.151"/>
<stop offset="0.308" stop-color="#353535" stop-opacity="0.227"/>
<stop offset="0.532" stop-color="#575757" stop-opacity="0.318"/>
<stop offset="0.783" stop-color="#858585" stop-opacity="0.421"/>
<stop offset="1" stop-color="#B3B3B3" stop-opacity="0.51"/>
</linearGradient>
</defs>
</svg>
