<svg width="135" height="39" viewBox="0 0 135 39" fill="none" xmlns="http://www.w3.org/2000/svg">
<g clip-path="url(#clip0_747_373)">
<path d="M129.895 0.0415039H5.03797C2.27931 0.0415039 0.0429688 2.21407 0.0429688 4.89407V34.006C0.0429688 36.686 2.27931 38.8586 5.03797 38.8586H129.895C132.654 38.8586 134.89 36.686 134.89 34.006V4.89407C134.89 2.21407 132.654 0.0415039 129.895 0.0415039Z" fill="black"/>
<path d="M129.895 0.811217C131.007 0.812131 132.074 1.24186 132.861 2.00606C133.647 2.77027 134.09 3.80649 134.091 4.88723V33.9992C134.091 34.5352 133.984 35.0661 133.773 35.5617C133.563 36.0572 133.254 36.5075 132.864 36.887C132.475 37.2665 132.012 37.5677 131.502 37.7734C130.993 37.979 130.447 38.0851 129.895 38.0856H5.03406C3.92221 38.0846 2.85611 37.6554 2.06958 36.8919C1.28304 36.1285 0.840286 35.0931 0.838405 34.013V4.89414C0.837938 4.35841 0.946093 3.82785 1.15669 3.33273C1.36729 2.83761 1.67621 2.38764 2.06581 2.00851C2.45542 1.62937 2.91807 1.3285 3.42737 1.12307C3.93666 0.917635 4.48261 0.81167 5.03406 0.811217H129.895ZM129.895 0.034668H5.03406C3.71046 0.0383107 2.44214 0.550729 1.50621 1.45997C0.570274 2.36922 0.0428121 3.60137 0.0390625 4.88723V33.9992C0.0437487 35.2844 0.571624 36.5157 1.50746 37.4242C2.44329 38.3327 3.71107 38.8447 5.03406 38.8483H129.895C131.218 38.8447 132.486 38.3327 133.421 37.4242C134.357 36.5157 134.885 35.2844 134.89 33.9992V4.89414C134.886 3.60828 134.359 2.37612 133.423 1.46688C132.487 0.557633 131.218 0.0452148 129.895 0.0415721V0.034668Z" fill="#A6A6A6"/>
<path d="M47.4051 9.9814C47.423 10.3375 47.3661 10.6934 47.2378 11.0275C47.1096 11.3616 46.9126 11.6668 46.659 11.9245C46.3754 12.21 46.0328 12.4341 45.6539 12.5822C45.275 12.7303 44.8681 12.799 44.4599 12.7839C43.6299 12.7839 42.8338 12.4635 42.2468 11.8933C41.6598 11.3231 41.3301 10.5497 41.3301 9.74326C41.3301 8.93683 41.6598 8.16344 42.2468 7.59321C42.8338 7.02299 43.6299 6.70264 44.4599 6.70264C44.8826 6.7022 45.3009 6.78558 45.6892 6.94768C46.0497 7.08971 46.371 7.31195 46.6271 7.59653L46.0977 8.11078C45.8979 7.88098 45.6461 7.69912 45.362 7.57939C45.0779 7.45966 44.7692 7.40528 44.4599 7.42051C44.0691 7.42446 43.6851 7.52132 43.3416 7.70264C42.9982 7.88395 42.7056 8.1442 42.4895 8.46066C42.2734 8.77712 42.1403 9.14017 42.102 9.5181C42.0636 9.89602 42.121 10.2773 42.2692 10.6287C42.4175 10.9801 42.652 11.2909 42.9524 11.534C43.2527 11.777 43.6098 11.9449 43.9923 12.023C44.3749 12.1011 44.7713 12.0871 45.147 11.9821C45.5226 11.8771 45.8661 11.6843 46.1474 11.4206C46.453 11.0972 46.6306 10.6789 46.6484 10.2402H44.4742V9.54998H47.3767C47.3989 9.69273 47.4084 9.83707 47.4051 9.9814Z" fill="white" stroke="white" stroke-width="0.2" stroke-miterlimit="10"/>
<path d="M52.0111 7.54792H49.2791V9.39438H51.7411V10.0846H49.2791V11.9311H52.0111V12.6455H48.5117V6.8335H52.0111V7.54792Z" fill="white" stroke="white" stroke-width="0.2" stroke-miterlimit="10"/>
<path d="M55.2567 12.6564H54.4858V7.54841H52.8125V6.83398H56.93V7.54841H55.2567V12.6564Z" fill="white" stroke="white" stroke-width="0.2" stroke-miterlimit="10"/>
<path d="M59.9121 12.6559V6.8335H60.6795V12.6559H59.9121Z" fill="white" stroke="white" stroke-width="0.2" stroke-miterlimit="10"/>
<path d="M64.0966 12.6559H63.3256V7.54792H61.6523V6.8335H65.7698V7.54792H64.0966V12.6559Z" fill="white" stroke="white" stroke-width="0.2" stroke-miterlimit="10"/>
<path d="M73.5685 11.9037C72.9842 12.467 72.1944 12.7832 71.3712 12.7832C70.548 12.7832 69.7581 12.467 69.1739 11.9037C68.6057 11.3204 68.2891 10.5479 68.2891 9.74487C68.2891 8.94184 68.6057 8.16932 69.1739 7.58607C69.4619 7.30557 69.8042 7.08302 70.1809 6.93118C70.5576 6.77933 70.9615 6.70117 71.3694 6.70117C71.7773 6.70117 72.1811 6.77933 72.5579 6.93118C72.9346 7.08302 73.2768 7.30557 73.5649 7.58607C74.1321 8.16914 74.448 8.94094 74.448 9.74315C74.448 10.5454 74.1321 11.3172 73.5649 11.9002L73.5685 11.9037ZM69.7423 11.417C70.1744 11.8352 70.7595 12.07 71.3694 12.07C71.9793 12.07 72.5644 11.8352 72.9965 11.417C73.4264 10.9603 73.6648 10.3638 73.6648 9.74487C73.6648 9.12597 73.4264 8.52946 72.9965 8.0727C72.5644 7.65456 71.9793 7.41979 71.3694 7.41979C70.7595 7.41979 70.1744 7.65456 69.7423 8.0727C69.3146 8.53054 69.0778 9.12664 69.0778 9.74487C69.0778 10.3631 69.3146 10.9592 69.7423 11.417Z" fill="white" stroke="white" stroke-width="0.2" stroke-miterlimit="10"/>
<path d="M75.5312 12.6564V6.83398H76.4691L79.3823 11.3621H79.4178L79.3823 10.2404V6.83398H80.1532V12.6564H79.3503L76.3022 7.90735H76.2702L76.3022 9.02903V12.6564H75.5312Z" fill="white" stroke="white" stroke-width="0.2" stroke-miterlimit="10"/>
<path d="M68.1008 21.1464C67.2577 21.1464 66.4334 21.3893 65.7324 21.8444C65.0313 22.2995 64.4849 22.9463 64.1622 23.7031C63.8395 24.4599 63.7551 25.2926 63.9196 26.096C64.0841 26.8994 64.4901 27.6374 65.0863 28.2166C65.6825 28.7958 66.4422 29.1902 67.2691 29.35C68.0961 29.5098 68.9533 29.4278 69.7323 29.1144C70.5113 28.8009 71.1771 28.2701 71.6455 27.589C72.114 26.9079 72.364 26.1072 72.364 25.288C72.3741 24.7414 72.2707 24.1985 72.0601 23.6916C71.8494 23.1846 71.5358 22.7241 71.1379 22.3376C70.74 21.951 70.266 21.6463 69.7442 21.4417C69.2224 21.237 68.6635 21.1366 68.1008 21.1464ZM68.1008 27.7764C67.5844 27.8118 67.069 27.6953 66.6216 27.4422C66.1742 27.189 65.8156 26.8109 65.5924 26.3571C65.3692 25.9033 65.2918 25.3947 65.3702 24.8976C65.4486 24.4004 65.6792 23.9377 66.0319 23.5695C66.3847 23.2014 66.8434 22.945 67.3482 22.8336C67.8531 22.7221 68.3808 22.7609 68.8627 22.9448C69.3446 23.1287 69.7583 23.4492 70.0501 23.8647C70.3419 24.2801 70.4983 24.7713 70.4989 25.2742C70.5146 25.5924 70.4646 25.9105 70.3519 26.2096C70.2392 26.5088 70.066 26.783 69.8426 27.0162C69.6191 27.2494 69.3499 27.4367 69.0508 27.5673C68.7517 27.6979 68.4287 27.769 68.1008 27.7764ZM58.7965 21.1464C57.9533 21.1464 57.1291 21.3893 56.428 21.8444C55.7269 22.2995 55.1805 22.9463 54.8578 23.7031C54.5352 24.4599 54.4508 25.2926 54.6153 26.096C54.7797 26.8994 55.1858 27.6374 55.782 28.2166C56.3782 28.7958 57.1378 29.1902 57.9648 29.35C58.7918 29.5098 59.6489 29.4278 60.4279 29.1144C61.2069 28.8009 61.8727 28.2701 62.3412 27.589C62.8096 26.9079 63.0597 26.1072 63.0597 25.288C63.0698 24.7414 62.9664 24.1985 62.7557 23.6916C62.5451 23.1846 62.2314 22.7241 61.8335 22.3376C61.4356 21.951 60.9616 21.6463 60.4398 21.4417C59.918 21.237 59.3591 21.1366 58.7965 21.1464ZM58.7965 27.7764C58.2801 27.8118 57.7646 27.6953 57.3172 27.4422C56.8699 27.189 56.5113 26.8109 56.2881 26.3571C56.0649 25.9033 55.9874 25.3947 56.0658 24.8976C56.1442 24.4004 56.3748 23.9377 56.7276 23.5695C57.0804 23.2014 57.539 22.945 58.0439 22.8336C58.5488 22.7221 59.0765 22.7609 59.5583 22.9448C60.0402 23.1287 60.454 23.4492 60.7458 23.8647C61.0376 24.2801 61.194 24.7713 61.1945 25.2742C61.2103 25.5924 61.1603 25.9105 61.0476 26.2096C60.9349 26.5088 60.7617 26.783 60.5382 27.0162C60.3148 27.2494 60.0456 27.4367 59.7464 27.5673C59.4473 27.6979 59.1243 27.769 58.7965 27.7764ZM47.73 22.4131V24.1663H52.0429C51.9813 24.9868 51.6357 25.7628 51.0624 26.3683C50.6302 26.7967 50.1104 27.1324 49.5364 27.3535C48.9624 27.5747 48.347 27.6764 47.73 27.6522C46.4581 27.6522 45.2382 27.1613 44.3387 26.2875C43.4393 25.4137 42.934 24.2286 42.934 22.9929C42.934 21.7572 43.4393 20.5721 44.3387 19.6983C45.2382 18.8245 46.4581 18.3336 47.73 18.3336C48.9412 18.3185 50.1096 18.7688 50.9807 19.5864L52.2525 18.3509C51.6578 17.7786 50.9515 17.3274 50.1748 17.024C49.3982 16.7205 48.567 16.5709 47.73 16.5838C45.9804 16.5838 44.3023 17.259 43.0651 18.461C41.8279 19.6629 41.1328 21.2931 41.1328 22.9929C41.1328 24.6927 41.8279 26.3229 43.0651 27.5248C44.3023 28.7268 45.9804 29.402 47.73 29.402C49.6947 29.402 51.1761 28.7773 52.3485 27.6039C53.5208 26.4304 53.9081 24.8221 53.9081 23.5071C53.9119 23.1403 53.8798 22.774 53.8122 22.4131H47.73ZM92.987 23.7729C92.6318 22.8514 91.566 21.1464 89.3527 21.1464C87.1394 21.1464 85.3453 22.8203 85.3453 25.288C85.3309 25.8319 85.4298 26.3731 85.636 26.8789C85.8422 27.3848 86.1515 27.8449 86.5454 28.2317C86.9393 28.6186 87.4095 28.9241 87.928 29.1299C88.4464 29.3358 89.0023 29.4377 89.5623 29.4296C90.2644 29.4362 90.9571 29.2723 91.5775 28.9528C92.1978 28.6334 92.7263 28.1685 93.1149 27.6004L91.6654 26.6617C91.4494 27.012 91.1432 27.3015 90.7768 27.5019C90.4105 27.7022 89.9968 27.8063 89.5765 27.804C89.1436 27.821 88.7155 27.7108 88.3479 27.488C87.9804 27.2651 87.6905 26.9399 87.516 26.5547L93.2002 24.2699L92.987 23.7729ZM87.1962 25.1534C87.1746 24.8523 87.2153 24.55 87.3158 24.2644C87.4164 23.9787 87.5748 23.7156 87.7818 23.4904C87.9887 23.2652 88.24 23.0826 88.5208 22.9533C88.8016 22.824 89.1062 22.7506 89.4166 22.7375C89.7387 22.7171 90.0598 22.7889 90.3402 22.9441C90.6206 23.0993 90.8479 23.3311 90.994 23.6107L87.1962 25.1534ZM82.5778 29.157H84.4429V17.0324H82.5778V29.157ZM79.519 22.0748H79.455C79.1716 21.7744 78.8252 21.5363 78.4391 21.3768C78.0531 21.2172 77.6363 21.1399 77.2169 21.1499C75.0853 21.1499 73.1456 22.9653 73.1456 25.2915C73.1385 26.3571 73.5602 27.3832 74.3208 28.1511C75.0813 28.919 76.1206 29.3678 77.2169 29.402C77.6378 29.413 78.0561 29.3347 78.4426 29.1726C78.8292 29.0105 79.1747 28.7684 79.455 28.4632H79.519V29.0603C79.519 30.6376 78.6486 31.4763 77.2489 31.4763C76.7836 31.464 76.3325 31.3177 75.953 31.0559C75.5735 30.7941 75.2826 30.4287 75.1173 30.006L73.4902 30.6617C73.7969 31.3862 74.319 32.0054 74.9898 32.44C75.6606 32.8747 76.4496 33.1051 77.256 33.1018C79.4444 33.1018 81.2953 31.849 81.2953 28.8015V21.3984H79.519V22.0748ZM77.3874 27.7799C76.0978 27.7799 75.0214 26.7445 75.0214 25.2949C75.0214 23.8454 76.0872 22.7789 77.3874 22.7789C78.6877 22.7789 79.654 23.8419 79.654 25.2949C79.654 26.7479 78.6486 27.7764 77.3803 27.7764L77.3874 27.7799ZM101.734 17.0324H97.2644V29.1639H99.1295V24.5563H101.734C103.798 24.5563 105.83 23.1033 105.83 20.7875C105.83 18.4717 103.798 17.0324 101.734 17.0324ZM101.78 22.879H99.1295V18.7098H101.78C102.347 18.7098 102.892 18.9289 103.293 19.3188C103.695 19.7088 103.92 20.2377 103.92 20.7892C103.92 21.3407 103.695 21.8696 103.293 22.2596C102.892 22.6496 102.347 22.8686 101.78 22.8686V22.879ZM113.294 21.1257C111.947 21.1257 110.548 21.7021 109.969 22.9825L111.624 23.6555C111.789 23.3628 112.038 23.1228 112.341 22.9648C112.644 22.8068 112.987 22.7374 113.329 22.7651C114.292 22.7651 115.273 23.3277 115.287 24.3251V24.4493C114.688 24.1417 114.021 23.9817 113.344 23.9834C111.567 23.9834 109.745 24.9325 109.745 26.7134C109.745 28.3355 111.208 29.3813 112.846 29.3813C113.315 29.4082 113.783 29.3126 114.201 29.1045C114.619 28.8963 114.972 28.5831 115.223 28.1975H115.287V29.1328H117.088V24.4804C117.092 22.3268 115.425 21.1257 113.294 21.1257ZM113.07 27.773C112.459 27.773 111.61 27.4796 111.61 26.7376C111.61 25.8023 112.676 25.4433 113.585 25.4433C114.179 25.4267 114.767 25.5662 115.287 25.8471C115.221 26.3741 114.96 26.8598 114.553 27.214C114.146 27.5682 113.62 27.7669 113.074 27.773H113.07ZM123.643 21.3915L121.511 26.6513H121.447L119.23 21.3915H117.223L120.548 28.7428L118.651 32.8326H120.595L125.728 21.3915H123.643ZM106.853 29.1535H108.718V17.0324H106.853V29.1535Z" fill="white"/>
<path d="M10.4645 7.36848C10.1387 7.74985 9.97369 8.23695 10.0027 8.73175V30.1921C9.96762 30.6929 10.1331 31.1875 10.4645 31.5726L10.5391 31.6451L22.9165 19.6207V19.3377L10.5391 7.28564L10.4645 7.36848Z" fill="url(#paint0_linear_747_373)"/>
<path d="M27.0406 23.5898L22.916 19.5897V19.3067L27.0406 15.3066L27.133 15.3584L32.0214 18.0539C33.4176 18.827 33.4176 20.0867 32.0214 20.8564L27.133 23.5553L27.0406 23.5898Z" fill="url(#paint1_linear_747_373)"/>
<path d="M27.1317 23.5484L22.9147 19.4482L10.4805 31.5279C10.9423 32.0042 11.7026 32.0628 12.5588 31.59L27.1494 23.5346" fill="url(#paint2_linear_747_373)"/>
<path d="M27.1318 15.3518L12.5412 7.29637C11.685 6.82354 10.9247 6.88222 10.4629 7.35505L22.9149 19.4347L27.1318 15.3518Z" fill="url(#paint3_linear_747_373)"/>
<path opacity="0.2" d="M27.0395 23.4585L12.5412 31.4621C11.7276 31.9073 11.0029 31.8797 10.5375 31.4621L10.4629 31.5346L10.5375 31.6036C11.0029 32.0109 11.7276 32.042 12.5412 31.6036L27.1318 23.5482L27.0395 23.4585Z" fill="black"/>
<path opacity="0.12" d="M10.4635 31.3999C10.1364 31.0192 9.9712 30.5316 10.0016 30.0366V30.1816C9.97264 30.6764 10.1377 31.1635 10.4635 31.5448L10.5381 31.4724L10.4635 31.3999Z" fill="black"/>
<path opacity="0.12" d="M32.0206 20.7079L27.0469 23.4689L27.1392 23.5587L32.0277 20.8597C32.7382 20.4766 33.0935 19.9658 33.0935 19.4585C33.027 19.7335 32.8954 19.9896 32.7092 20.2065C32.5229 20.4234 32.2871 20.5951 32.0206 20.7079Z" fill="black"/>
<path opacity="0.25" d="M12.5401 7.4376L32.0192 18.1885C32.2854 18.3036 32.5202 18.4774 32.7052 18.6961C32.8902 18.9147 33.0203 19.1723 33.085 19.4482C33.085 18.9409 32.7297 18.4335 32.0192 18.047L12.5401 7.2961C11.1439 6.52645 10 7.16495 10 8.71805V8.85956C10 7.30646 11.1439 6.67831 12.5401 7.4376Z" fill="white"/>
</g>
<defs>
<linearGradient id="paint0_linear_747_373" x1="21.8187" y1="8.49361" x2="5.53862" y2="25.248" gradientUnits="userSpaceOnUse">
<stop stop-color="#00A0FF"/>
<stop offset="0.01" stop-color="#00A1FF"/>
<stop offset="0.26" stop-color="#00BEFF"/>
<stop offset="0.51" stop-color="#00D2FF"/>
<stop offset="0.76" stop-color="#00DFFF"/>
<stop offset="1" stop-color="#00E3FF"/>
</linearGradient>
<linearGradient id="paint1_linear_747_373" x1="33.8368" y1="19.4482" x2="9.66826" y2="19.4482" gradientUnits="userSpaceOnUse">
<stop stop-color="#FFE000"/>
<stop offset="0.41" stop-color="#FFBD00"/>
<stop offset="0.78" stop-color="#FFA500"/>
<stop offset="1" stop-color="#FF9C00"/>
</linearGradient>
<linearGradient id="paint2_linear_747_373" x1="24.8402" y1="21.6778" x2="2.76431" y2="44.3981" gradientUnits="userSpaceOnUse">
<stop stop-color="#FF3A44"/>
<stop offset="1" stop-color="#C31162"/>
</linearGradient>
<linearGradient id="paint3_linear_747_373" x1="7.32947" y1="0.210799" x2="17.1857" y2="10.3599" gradientUnits="userSpaceOnUse">
<stop stop-color="#32A071"/>
<stop offset="0.07" stop-color="#2DA771"/>
<stop offset="0.48" stop-color="#15CF74"/>
<stop offset="0.8" stop-color="#06E775"/>
<stop offset="1" stop-color="#00F076"/>
</linearGradient>
<clipPath id="clip0_747_373">
<rect width="135" height="39" fill="white"/>
</clipPath>
</defs>
</svg>
