<svg width="67" height="57" viewBox="0 0 67 57" fill="none" xmlns="http://www.w3.org/2000/svg">
<path fill-rule="evenodd" clip-rule="evenodd" d="M1.47034 0.668022C1.03377 1.03467 0.529014 1.62636 0.349002 1.98291C-0.147977 2.96797 -0.0992364 47.3973 0.400134 48.3619C0.988913 49.4993 2.25289 50.2435 3.85596 50.3964L5.34241 50.5383L5.45544 52.7596C5.56339 54.8838 5.61691 55.0248 6.67815 55.9903L7.78783 57H11.9828H16.1778L17.2875 55.9903C18.3521 55.0219 18.402 54.8886 18.512 52.7246L18.6269 50.4686H33.5126H48.3983L48.5131 52.7246C48.6232 54.8886 48.6731 55.0219 49.7376 55.9903L50.8473 57H55.0423H59.2373L60.347 55.9903C61.4082 55.0248 61.4618 54.8838 61.5697 52.7596L61.6828 50.5383L63.1692 50.3964C64.7723 50.2435 66.0362 49.4993 66.625 48.3619C66.9085 47.8142 66.9955 42.4142 66.9988 25.1445C67.0036 0.74996 67.0577 1.57648 65.3844 0.487813C64.6978 0.0413018 61.9136 -0.0014486 33.4483 3.58149e-05L2.26455 0.00151941L1.47034 0.668022ZM64.2523 2.72987C64.525 3.00063 64.6111 8.3454 64.6111 24.9717C64.6111 37.0088 64.5295 47.0687 64.4296 47.327C64.2657 47.7509 61.2635 47.7966 33.5126 47.7966C5.76164 47.7966 2.75943 47.7509 2.59557 47.327C2.4957 47.0687 2.41406 37.0088 2.41406 24.9717C2.41406 8.3454 2.50018 3.00063 2.77289 2.72987C3.29349 2.213 63.7317 2.213 64.2523 2.72987ZM5.76313 5.6987C5.24433 6.21379 5.24433 44.2533 5.76313 44.7684C6.28344 45.285 60.7417 45.285 61.262 44.7684C61.7808 44.2533 61.7808 6.21379 61.262 5.6987C60.7417 5.18212 6.28344 5.18212 5.76313 5.6987ZM59.2287 10.5379V13.3583H57.7291C56.4388 13.3583 56.074 13.4999 55.1126 14.3745C54.0825 15.312 53.9957 15.5175 53.9957 17.0227C53.9957 18.3533 54.1336 18.8007 54.7433 19.4485C55.7663 20.5354 56.9049 21.0772 58.1671 21.0772H59.2287V25.2336V29.3899H57.7739C53.4261 29.3899 52.4139 34.993 56.4531 36.7018C56.9824 36.9257 57.8232 37.1089 58.322 37.1089H59.2287V39.9293V42.7496H33.5126H7.7965V25.2336V7.7175H33.5126H59.2287V10.5379ZM30.8214 10.1264C28.0518 10.5667 24.5939 12.4647 22.4864 14.7017C19.5643 17.8029 18.2623 20.9552 18.2623 24.9281C18.2623 32.8168 23.4989 38.973 31.1951 40.132C37.6272 41.1007 44.4198 37.751 47.0802 32.2988C50.9499 24.3679 47.977 15.3129 40.2768 11.5773C36.9517 9.96401 34.3525 9.56529 30.8214 10.1264ZM38.3723 13.3348C46.9477 16.6269 49.0705 28.0848 42.2854 34.4562C37.3703 39.0713 29.6549 39.0713 24.7398 34.4562C20.5687 30.5395 19.5221 24.7455 22.0262 19.4334C23.4486 16.4156 25.8558 14.3276 29.2832 13.1383C31.8617 12.2438 35.7493 12.3278 38.3723 13.3348ZM30.8312 15.0027C24.172 16.8544 20.9778 23.8795 24.0544 29.9074C25.0481 31.854 27.0378 33.774 29.0272 34.7059C30.4574 35.3757 31.0615 35.4757 33.6621 35.4727C36.3114 35.4701 36.8228 35.3804 38.1475 34.6872C42.3386 32.4944 44.7646 27.6888 43.9396 23.2139C42.843 17.2673 36.6464 13.3856 30.8312 15.0027ZM59.2287 17.2566V18.7799L58.1082 18.5994C55.6141 18.1975 55.6957 15.7333 58.2033 15.7333H59.2287V17.2566ZM36.2038 17.5844C38.3852 18.2337 38.4369 18.4391 36.8207 20.0197C35.3958 21.413 35.3238 21.4439 33.5054 21.4439C31.6751 21.4439 31.6233 21.4213 30.162 19.9704L28.678 18.4967L29.7547 17.9893C31.8751 16.9903 33.802 16.8692 36.2038 17.5844ZM28.4325 21.8227C29.7215 23.1269 29.7562 23.2124 29.7655 25.0982C29.7748 27.0143 29.7601 27.049 28.3831 28.396C27.6176 29.1444 26.8563 29.6743 26.6915 29.5731C26.1521 29.2421 25.4389 26.6461 25.4389 25.013C25.4389 23.5155 26.4227 20.4834 26.9086 20.4834C27.0187 20.4834 27.7043 21.0861 28.4325 21.8227ZM40.9514 21.9486C41.3371 22.8392 41.5862 24.041 41.5862 25.013C41.5862 26.6461 40.8731 29.2421 40.3336 29.5731C40.1689 29.6743 39.4075 29.1444 38.642 28.396C37.265 27.049 37.2504 27.0143 37.2597 25.0982C37.2689 23.2124 37.3036 23.1269 38.5927 21.8227C39.3208 21.0861 40.0065 20.4834 40.1165 20.4834C40.2266 20.4834 40.6021 21.1428 40.9514 21.9486ZM34.5379 24.2156C35.0887 24.7627 35.1186 25.0667 34.6982 25.8469C34.0735 27.0054 32.0175 26.3386 32.0175 24.9774C32.0175 24.4896 32.919 23.7492 33.5126 23.7492C33.8179 23.7492 34.2793 23.959 34.5379 24.2156ZM36.9932 30.3302L38.3828 31.7095L37.1233 32.3475C34.8032 33.5225 31.403 33.4367 29.43 32.1533L28.6923 31.6732L30.0663 30.2883L31.4403 28.9033L33.5221 28.9268C35.589 28.9502 35.6138 28.9603 36.9932 30.3302ZM59.2287 33.2883V34.8116L58.1082 34.6311C55.6141 34.2291 55.6957 31.765 58.2033 31.765H59.2287V33.2883ZM16.1692 52.0804C16.1692 54.4584 15.895 54.6249 11.9828 54.6249C8.0707 54.6249 7.7965 54.4584 7.7965 52.0804V50.4686H11.9828H16.1692V52.0804ZM59.2287 52.0804C59.2287 54.4584 58.9545 54.6249 55.0423 54.6249C51.1302 54.6249 50.856 54.4584 50.856 52.0804V50.4686H55.0423H59.2287V52.0804Z" fill="#109CF8"/>
</svg>
