<svg width="73" height="73" viewBox="0 0 73 73" fill="none" xmlns="http://www.w3.org/2000/svg">
<path fill-rule="evenodd" clip-rule="evenodd" d="M13.7555 0.458233C11.8376 1.16426 9.55359 3.43889 8.83188 5.36165C8.29751 6.78511 8.23478 7.44494 8.32546 10.6931C8.44151 14.8594 8.67676 15.5691 10.6061 17.5703C11.4746 18.4713 11.7164 18.9299 11.6443 19.5395C11.5548 20.2992 11.3634 20.3924 7.332 21.6445C0.175344 23.8669 0.0170861 24.1244 0.00824651 33.5762L0.00197342 40.2059H15.6121H31.2223L28.3095 43.1187L25.3967 46.0315L24.5969 45.265L23.797 44.4989L22.5669 45.3135C21.3773 46.1011 21.3009 46.1139 20.2569 45.7039C19.2643 45.3141 19.1571 45.1615 18.9281 43.8122L18.6792 42.3446L15.3507 42.2644L12.0224 42.1843L11.7048 43.7136C11.4267 45.0526 11.2625 45.3024 10.3839 45.7213C9.38735 46.1966 9.37138 46.1935 8.0828 45.307L6.78509 44.4142L4.53412 46.6517C3.29601 47.8827 2.28316 49.0233 2.28316 49.1864C2.28316 49.3498 2.61422 49.9709 3.01913 50.5665C3.72003 51.5982 3.73514 51.6991 3.33793 52.7C2.95868 53.6555 2.7893 53.7733 1.46136 54.0046L0.00197342 54.2584V57.6208C0.00197342 61.3109 -0.138605 61.0346 1.95324 61.4566C2.69206 61.6058 3.00031 61.8738 3.32452 62.65C3.72117 63.5992 3.70491 63.7085 3.01314 64.7541C2.61165 65.3609 2.28316 65.9591 2.28316 66.0837C2.28316 66.3709 6.64137 70.7168 6.92937 70.7168C7.04685 70.7168 7.63911 70.3883 8.2459 69.9869C9.29154 69.2951 9.40075 69.2788 10.35 69.6755C11.1262 69.9997 11.3942 70.3079 11.5434 71.0468C11.9654 73.1386 11.6891 72.998 15.3792 72.998H18.7416L18.9954 71.5386C19.2267 70.2107 19.3445 70.0413 20.3 69.6621C21.3009 69.2649 21.4018 69.28 22.4335 69.9809C23.0291 70.3858 23.6502 70.7168 23.8136 70.7168C23.9767 70.7168 25.1173 69.704 26.3483 68.4659L28.5858 66.2149L27.693 64.9172C26.8065 63.6286 26.8034 63.6126 27.2787 62.6161C27.6976 61.7375 27.9474 61.5733 29.2864 61.2952L30.8157 60.9776L30.7356 57.6493L30.6554 54.3208L29.1878 54.0719C27.8385 53.8429 27.6859 53.7357 27.2961 52.7431C26.8861 51.6991 26.8989 51.6227 27.6865 50.4331L28.5011 49.2029L27.7361 48.4045L26.9713 47.6061L30.2269 44.3415L33.4821 41.0768L35.1243 41.1458C36.7237 41.2131 36.7995 41.2539 38.0485 42.717C39.1834 44.0466 39.2952 44.2973 39.0206 44.8995C38.5227 45.9922 38.9652 47.4712 40.0842 48.4536C42.454 50.5343 45.9109 48.9862 45.9109 45.8439C45.9109 45.3221 45.7158 44.6166 45.4772 44.2762C45.0668 43.6902 45.2397 43.3098 48.7116 37.1551C52.2743 30.8402 52.4071 30.6509 53.3387 30.5597C54.4685 30.4493 55.7836 29.5876 56.0359 28.7926C56.2045 28.2616 56.4862 28.2297 61.0095 28.2297H65.8043L66.9449 29.3703C67.9107 30.3361 68.2674 30.5109 69.2737 30.5109C70.7864 30.5109 72.016 29.8756 72.5674 28.8094C73.6912 26.6363 72.3721 23.853 70.1288 23.6631C68.5554 23.5296 68.0364 23.7164 66.9449 24.8079L65.8043 25.9485L61.0614 25.9374L56.3188 25.9266L55.7428 25.0107C54.2461 22.6308 50.5314 23.3232 49.5961 26.1564C49.3349 26.9482 49.3615 27.3671 49.7347 28.3449L50.1967 29.5539L46.5568 36.02L42.9168 42.486L41.9188 42.4703C41.0751 42.4569 40.7363 42.2313 39.7266 41.0089C38.6088 39.6559 38.5426 39.478 38.6909 38.2247C38.8843 36.592 38.2917 35.2766 37.0807 34.6504C36.1283 34.1579 34.4345 34.0829 33.6575 34.4987C33.161 34.7645 33.1271 34.5591 33.0344 30.7205C32.9452 27.0198 32.8736 26.549 32.2238 25.3893C31.2734 23.693 30.1271 22.9781 26.6905 21.9373C20.9245 20.1914 21.103 20.2701 21.103 19.4785C21.103 19.0114 21.6034 18.2096 22.5224 17.2042C24.2205 15.3461 24.8099 13.6472 24.8099 10.6112C24.8099 8.75691 24.9003 8.38679 25.5384 7.62829C25.9394 7.15181 26.5755 6.15379 26.9525 5.40984L27.6377 4.05766L25.5242 3.30744C24.3616 2.89454 22.4252 2.02541 21.2207 1.37584C19.3425 0.362709 18.7422 0.18164 17.0017 0.102654C15.6572 0.0416319 14.5617 0.161679 13.7555 0.458233ZM50.1662 0.833489C49.4638 1.53581 49.3327 1.89481 49.3327 3.11468V4.56238H41.8187C37.055 4.56238 33.9731 4.67815 33.3983 4.87832C31.7989 5.43607 31.6535 6.11073 31.6535 12.9743C31.6535 21.0893 31.6589 21.101 35.5263 21.101H37.6416V23.5293V25.9574L40.8743 23.5293L44.107 21.101H49.1231H54.1388L54.7297 20.3496C55.1608 19.8016 55.3208 19.1845 55.3208 18.0684V16.5386H57.0317H58.7426V18.8198C58.7426 20.0745 58.8104 21.101 58.8934 21.101C58.9764 21.101 60.4078 20.0745 62.0742 18.8198L65.1042 16.5386H68.0729C71.0328 16.5386 71.9501 16.3142 72.6344 15.4228C72.8845 15.0972 72.9843 13.0689 72.9909 8.18519L73 1.39979L72.3 0.70004L71.6002 0H61.3001H50.9996L50.1662 0.833489ZM19.2495 3.06677C19.72 3.30744 21.0303 3.97354 22.1614 4.54698L24.2179 5.58948L23.4711 6.39503C23.0605 6.83786 22.1526 7.45321 21.4537 7.76231C19.736 8.52223 18.2044 8.26531 16.0133 6.84898L14.3007 5.74204L12.8513 6.29294C12.0541 6.59577 11.2816 6.84356 11.1345 6.84356C10.5975 6.84356 11.449 5.20852 12.5411 4.14178C14.3421 2.38327 17.0618 1.94728 19.2495 3.06677ZM70.6535 8.19802L70.7305 13.9723H67.6395H64.5485L63.0001 15.1303L61.4515 16.2883L61.3089 15.2016L61.1663 14.1149L58.2436 14.0336L55.3208 13.9523V10.1513C55.3208 6.73777 55.2606 6.27355 54.73 5.59889C54.3453 5.11015 53.7476 4.78508 53.0191 4.66845C51.9386 4.49594 51.899 4.45031 51.899 3.38158V2.27349L61.2376 2.34848L70.5762 2.42376L70.6535 8.19802ZM53.0396 12.9743V18.8198H48.0906H43.1415L41.8344 19.8178C41.1155 20.3667 40.4554 20.8158 40.3676 20.8158C40.2798 20.8158 40.2079 20.3667 40.2079 19.8178V18.8198H37.2139H34.2198V12.9743V7.12871H43.6297H53.0396V12.9743ZM59.8832 8.26931V9.4099H61.1663H62.4495V8.26931V7.12871H61.1663H59.8832V8.26931ZM64.7307 8.26931V9.4099H65.8713H67.0119V8.26931V7.12871H65.8713H64.7307V8.26931ZM15.6181 9.48119C17.1226 10.3338 17.4553 10.4079 19.7773 10.4079H22.3009L22.1865 12.1188C21.864 16.9487 16.2626 19.351 12.6728 16.199C11.2633 14.9615 10.8125 13.9381 10.6332 11.5665L10.4778 9.51227L12.0121 9.06658C12.8562 8.82135 13.6446 8.60578 13.7647 8.58753C13.8847 8.56928 14.7188 8.97163 15.6181 9.48119ZM36.501 10.5505V11.6911H43.6297H50.7584V10.5505V9.4099H43.6297H36.501V10.5505ZM36.501 15.2506V16.5386H43.646H50.7912L50.7034 15.3267L50.6158 14.1149L43.5584 14.0387L36.501 13.9623V15.2506ZM18.8221 20.4386C18.8218 21.2632 17.534 22.2416 16.4493 22.2416C15.4259 22.2416 14.2591 21.2652 14.26 20.4098C14.2605 19.86 14.4231 19.8178 16.5414 19.8178C18.6943 19.8178 18.8223 19.8526 18.8221 20.4386ZM13.1319 25.5599C14.1248 28.5408 14.1114 28.0107 13.3657 34.7168L13.0407 37.6396H11.2263H9.41187V32.9347V28.2297H8.27128H7.13069V32.9347V37.6396H4.70692H2.28316L2.28487 33.0059C2.28658 27.9819 2.50729 26.6554 3.49447 25.7361C4.03511 25.2328 10.8482 22.8692 11.8835 22.8259C12.0666 22.8182 12.6283 24.0486 13.1319 25.5599ZM24.638 23.8418C30.6911 25.648 30.5129 25.3856 30.5129 32.4927V37.6396H28.2317H25.9505V32.9347V28.2297H24.6673H23.3842V32.9347V37.6396H21.6733C20.7323 37.6396 19.9558 37.5432 19.9478 37.4257C19.9398 37.3083 19.7035 35.223 19.4223 32.7921L18.9113 28.3723L19.7234 25.9485C20.7941 22.7537 20.7705 22.8119 20.9935 22.8119C21.0998 22.8119 22.7397 23.2752 24.638 23.8418ZM17.396 25.0817C17.396 25.198 17.2552 25.6973 17.0829 26.1912C16.5942 27.5935 16.2477 27.37 15.5796 25.2214C15.4162 24.6959 15.4987 24.6488 16.3969 24.7537C16.9464 24.8179 17.396 24.9653 17.396 25.0817ZM53.895 26.5188C54.5113 27.67 53.15 28.7963 52.2412 27.8875C51.5249 27.1712 52.0581 25.9485 53.0867 25.9485C53.3632 25.9485 53.7271 26.2052 53.895 26.5188ZM69.9826 26.1216C70.6695 26.3851 70.5697 27.863 69.8497 28.0914C68.7621 28.4367 67.9688 27.1017 68.7798 26.2907C69.1682 25.9023 69.3461 25.8772 69.9826 26.1216ZM16.9871 33.1323C17.5483 37.8421 17.5757 37.6396 16.3789 37.6396C15.5466 37.6396 15.3872 37.5489 15.5018 37.1406C15.5791 36.866 15.7995 35.0676 15.9917 33.1437C16.1836 31.2198 16.4 29.7048 16.4719 29.7769C16.544 29.8491 16.7758 31.3589 16.9871 33.1323ZM61.2396 51.104L61.1663 70.5743L60.097 70.6627L59.0277 70.7513V54.1953V37.6396H55.4656H51.9036L51.83 54.1069L51.7564 70.5743L50.6871 70.6627L49.6178 70.7513V63.0264V55.3017L45.9822 55.3815L42.3465 55.4614L42.2707 63.0891L42.1945 70.7168H41.2048H40.2153L40.1403 60.6654L40.0653 50.6139H36.501H32.9366L32.8616 60.6654L32.7866 70.7168H31.6498C30.5134 70.7168 30.5129 70.7174 30.5129 71.8574V72.998H51.7564H73V71.8574V70.7168H70.7208H68.4416L68.3683 51.2554L68.2951 31.7941L64.804 31.7139L61.3129 31.6341L61.2396 51.104ZM65.8713 52.4673V70.7168H64.7307H63.5901V52.4673V34.2178H64.7307H65.8713V52.4673ZM36.0673 36.9612C36.623 37.517 36.5395 38.1774 35.8594 38.6057C34.8714 39.2279 33.7587 37.8258 34.5163 36.913C34.9652 36.3721 35.4944 36.3887 36.0673 36.9612ZM56.4614 55.4614V70.7168H55.3208H54.1802V55.4614V40.2059H55.3208H56.4614V55.4614ZM16.9472 46.0096C17.1214 47.1716 17.2104 47.2736 18.3339 47.6024C18.9943 47.7955 19.9393 48.1875 20.4334 48.4735C21.3242 48.9888 21.3422 48.9868 22.3918 48.2737L23.4512 47.5536L24.4486 48.5514L25.4463 49.5488L24.7095 50.633C23.975 51.714 23.9744 51.7194 24.5065 52.5911C24.7999 53.0718 25.1994 54.0057 25.3945 54.6661C25.7261 55.789 25.8293 55.8788 26.9904 56.0528L28.2317 56.239V57.6131C28.2317 59.06 28.2619 59.0292 26.4538 59.4312C25.9089 59.5524 25.6174 59.8396 25.4863 60.3845C25.383 60.8133 25.0035 61.7549 24.6431 62.4769L23.9872 63.7894L24.7118 64.8556L25.4364 65.9218L24.6422 66.751C23.7001 67.7342 23.316 67.7735 22.2262 66.9974C21.4394 66.4373 21.3716 66.4336 20.4714 66.903C19.9561 67.1713 19.0214 67.5426 18.3941 67.7279C17.3698 68.0305 17.2221 68.193 16.9455 69.3196C16.6415 70.5583 16.621 70.5754 15.3153 70.6607C13.9124 70.7525 13.9127 70.7531 13.6289 68.8939C13.5363 68.2877 13.3985 68.1981 10.9257 67.1354L9.16037 66.3769L8.31548 66.9785C7.23077 67.751 7.10445 67.739 6.18599 66.7804C5.26382 65.818 5.25897 65.7555 6.02146 64.6845L6.62312 63.8396L5.86463 62.0743C4.80188 59.6015 4.71234 59.4637 4.10612 59.3711C2.24695 59.0873 2.24752 59.0876 2.33934 57.6847C2.42459 56.379 2.4417 56.3585 3.68039 56.0545C4.80701 55.7779 4.96955 55.6302 5.27209 54.6059C5.45744 53.9786 5.8287 53.0439 6.09702 52.5286C6.56638 51.6284 6.56267 51.5606 6.00264 50.7738C5.22646 49.684 5.26581 49.2999 6.24901 48.3578L7.07822 47.5636L8.14496 48.2885C9.20685 49.0102 9.21712 49.011 10.2388 48.4978C10.8034 48.2143 11.7467 47.8265 12.3346 47.6363C13.1302 47.3789 13.4476 47.0951 13.573 46.5283C13.9694 44.7418 13.942 44.7683 15.3869 44.7683H16.761L16.9472 46.0096ZM43.1817 45.2163C43.7118 45.7467 43.7164 45.7846 43.3346 46.498C42.8233 47.4533 41.3485 47.0159 41.3485 45.9089C41.3485 45.3671 41.8917 44.7683 42.3833 44.7683C42.5758 44.7683 42.9351 44.9699 43.1817 45.2163ZM13.9743 49.5078C13.1063 49.6612 10.5519 50.7898 10.5539 51.0191C10.5547 51.1097 10.853 51.5563 11.2169 52.0111L11.8784 52.8377L13.2063 52.3307C18.0159 50.4938 22.5447 55.1261 20.6262 59.9203L20.1497 61.1116L20.9826 61.778C21.4409 62.1447 21.8903 62.4452 21.9809 62.4461C22.0719 62.447 22.4511 61.7962 22.8238 61.0004C24.1515 58.166 23.5815 54.5811 21.4098 52.1078C19.8084 50.2839 16.3755 49.0835 13.9743 49.5078ZM7.85953 54.1069C7.08506 55.7069 6.95104 58.6225 7.56639 60.4754C8.25845 62.5596 10.4404 64.7415 12.5246 65.4336C14.3775 66.049 17.2931 65.9149 18.8931 65.1405C20.1372 64.5385 20.1682 64.4136 19.3493 63.3061C18.7762 62.5311 18.6875 62.5023 17.9852 62.8656C15.7245 64.0344 13.1142 63.5987 11.2579 61.7421C9.40132 59.8858 8.96562 57.2755 10.1344 55.0148C10.4977 54.3125 10.4689 54.2238 9.69389 53.6507C8.58637 52.8317 8.46147 52.8628 7.85953 54.1069ZM37.6416 61.8772V70.7168H36.501H35.3604V61.8772V53.0376H36.501H37.6416V61.8772ZM13.4581 54.7559C11.5551 55.9162 11.2345 58.6109 12.8117 60.1883C15.0464 62.423 18.8175 60.7329 18.8206 57.4951C18.8215 56.5934 18.6199 56.1902 17.7148 55.2852C16.8098 54.3801 16.4066 54.1785 15.5049 54.1794C14.8981 54.1799 13.9771 54.4394 13.4581 54.7559ZM16.2523 57.3092C16.6353 58.0246 15.974 58.8199 15.0989 58.6964C14.2315 58.5741 13.9654 57.3796 14.6877 56.8515C15.258 56.4343 15.8819 56.6168 16.2523 57.3092ZM47.0515 64.1584V70.7168H45.9109H44.7703V64.1584V57.6H45.9109H47.0515V64.1584ZM25.9505 71.8574V72.998H27.0911H28.2317V71.8574V70.7168H27.0911H25.9505V71.8574Z" fill="#109CF8"/>
</svg>
