<svg width="68" height="68" viewBox="0 0 68 68" fill="none" xmlns="http://www.w3.org/2000/svg">
<path fill-rule="evenodd" clip-rule="evenodd" d="M55.5147 1.19614V2.39228H59.6969H63.8794L53.257 13.0246L42.6345 23.657H30.8046H18.9746L9.81947 31.6672C4.78383 36.0729 0.621021 39.7906 0.568428 39.9288C0.515835 40.0667 0.797925 40.5194 1.19503 40.9343L1.91752 41.689L10.8426 33.8691L19.7678 26.0493H31.73H43.6922L54.6504 15.086L65.6083 4.12243V8.30786V12.493H66.8036H67.9989V6.24651V0H61.7568H55.5147V1.19614ZM54.5851 22.8601C51.5631 23.3149 49.4886 24.1525 48.343 25.3802L47.6789 26.0918L47.6075 45.1936L47.5358 64.2955L48.3409 65.2133C50.0873 67.2037 53.9648 68.2074 58.9678 67.9642C62.2458 67.805 64.2749 67.3257 66.0716 66.2864C68.1107 65.1067 67.9989 66.3318 67.9989 45.1695V26.2526L67.0028 25.2614C64.9185 23.1873 59.4441 22.1286 54.5851 22.8601ZM61.7297 25.3837C63.8542 25.8342 65.4397 26.5825 65.5586 27.1907C65.6115 27.461 65.2726 27.802 64.629 28.1258C61.1416 29.8799 53.7773 29.7924 50.6672 27.9599C49.6591 27.3658 49.7508 26.9525 51.0361 26.2962C53.4854 25.0459 58.227 24.641 61.7297 25.3837ZM52.5929 31.1642C55.0395 31.9064 60.5055 31.9064 62.9521 31.1642C63.9017 30.8761 64.888 30.5516 65.1435 30.4428C65.5374 30.2754 65.6083 30.3937 65.6083 31.2187C65.6083 32.1358 65.5273 32.2291 64.2138 32.824C60.7068 34.4124 54.0913 34.3003 50.8 32.5962C50.0698 32.2182 49.9367 32.0023 49.9367 31.1972C49.9367 30.3926 50.0087 30.2759 50.4015 30.4428C50.6573 30.5516 51.6433 30.8761 52.5929 31.1642ZM51.4608 35.3505C52.2261 35.6415 53.9983 36.0206 55.3992 36.1928C58.3176 36.5517 61.556 36.2449 64.1025 35.368L65.6083 34.8497V35.7803C65.6083 36.6452 65.5095 36.7561 64.2138 37.347C63.447 37.6968 62.0424 38.1077 61.0928 38.2606C57.603 38.8219 53.7818 38.4644 51.3312 37.347C50.0297 36.7534 49.9367 36.6482 49.9367 35.7659C49.9367 35.2463 49.9667 34.821 50.0031 34.8213C50.0395 34.8213 50.6956 35.0594 51.4608 35.3505ZM31.2928 36.4164C27.8886 36.8345 25.0932 38.0163 24.1502 39.4362C23.8413 39.9014 23.76 42.1488 23.7013 51.8328C23.6214 65.0528 23.5975 64.8611 25.4839 66.1224C27.4078 67.4086 29.8101 67.9142 33.9995 67.9142C38.1888 67.9142 40.5911 67.4086 42.515 66.1224C44.368 64.8837 44.3579 64.9584 44.3581 52.4641C44.3584 46.3055 44.2843 40.8947 44.1934 40.4399C43.9977 39.4612 43.0229 38.419 41.6451 37.7156C39.4816 36.6112 34.6486 36.0046 31.2928 36.4164ZM39.356 39.3315C40.3061 39.6252 41.2889 40.0925 41.5399 40.37C41.9742 40.8503 41.962 40.9008 41.2761 41.4407C39.9247 42.5045 37.8831 42.917 33.9995 42.9111C30.1379 42.9053 28.04 42.4773 26.6999 41.4226C26.0433 40.9059 26.0287 40.8458 26.4465 40.3838C26.96 39.8161 28.9601 39.1024 30.9148 38.7895C33.0453 38.4485 37.4047 38.7286 39.356 39.3315ZM51.4064 39.8485C54.7795 41.1316 59.9121 41.2065 63.6239 40.0269L65.6375 39.3868L65.5565 40.336C65.4896 41.1204 65.3098 41.3705 64.5187 41.7799C61.3706 43.4087 54.8087 43.4513 51.3312 41.8657C50.0297 41.2722 49.9367 41.1669 49.9367 40.2847C49.9367 39.765 49.9667 39.3397 50.0031 39.34C50.0395 39.34 50.6711 39.5689 51.4064 39.8485ZM27.2344 44.2779C28.708 44.8938 31.9273 45.4533 33.9995 45.4533C36.0716 45.4533 39.2909 44.8938 40.7645 44.2779C42.0379 43.7453 41.9681 43.7245 41.9681 44.6365C41.9681 46.4642 39.186 47.4443 33.9995 47.4443C28.8129 47.4443 26.0308 46.4642 26.0308 44.6365C26.0308 43.7245 25.961 43.7453 27.2344 44.2779ZM56.4189 45.3635C59.1019 45.5371 61.959 45.1822 64.1867 44.3986L65.6386 43.888L65.5571 44.8702C65.488 45.7011 65.327 45.9246 64.5092 46.3249C61.1403 47.9732 54.3141 47.9432 51.0273 46.2651C50.0756 45.7792 49.9367 45.594 49.9367 44.8117V43.9148L51.9698 44.561C53.1587 44.939 55.0063 45.2721 56.4189 45.3635ZM5.25212 45.8667C3.27537 46.3462 1.25878 47.3791 0.557538 48.2715C0.0209838 48.9538 0 49.2648 0 56.5336C0 65.0679 0.0231091 65.1849 1.92734 66.2864C3.724 67.3257 5.75308 67.805 9.03111 67.9642C14.0282 68.2071 17.9116 67.2034 19.6527 65.2192L20.4528 64.3072L20.4517 56.8074C20.4509 50.009 20.4053 49.2329 19.9649 48.5101C19.346 47.4945 17.3017 46.3784 15.1173 45.863C12.9676 45.3558 7.34893 45.3579 5.25212 45.8667ZM12.7498 47.8547C15.2466 48.1787 17.059 48.7717 17.6922 49.4718C18.1695 49.9997 18.1661 50.0242 17.5525 50.4875C15.007 52.4088 6.4158 52.6158 3.35957 50.8299C2.05644 50.0681 2.25618 49.4166 4.00609 48.7217C6.51674 47.7249 9.4824 47.4307 12.7498 47.8547ZM28.5542 49.2541C29.873 49.705 30.8125 49.7991 33.9995 49.7991C37.7856 49.7991 38.8845 49.6109 41.5032 48.5149C41.8833 48.356 41.9673 48.4588 41.9641 49.0798C41.9585 50.1287 41.7301 50.404 40.3651 51.0066C36.7008 52.6249 29.0794 52.333 26.7315 50.4851C25.8831 49.8171 25.6866 48.1763 26.4957 48.5149C26.7515 48.6221 27.6777 48.9546 28.5542 49.2541ZM53.7903 49.5654C57.2033 50.2709 61.9837 49.9192 64.7607 48.7587L65.6397 48.3913L65.5576 49.3682C65.4928 50.1398 65.3002 50.4468 64.6393 50.8317C61.6245 52.5866 53.4248 52.4306 50.5343 50.563C50.1075 50.2871 49.9367 49.9187 49.9367 49.2735V48.3701L50.8797 48.7643C51.3984 48.9812 52.7082 49.3416 53.7903 49.5654ZM8.76628 54.4092C11.6536 54.5852 14.738 54.2059 16.8154 53.4191L18.092 52.9359L18.0107 53.8997C17.9469 54.657 17.7504 54.9677 17.0943 55.3497C14.2755 56.9908 6.17728 56.9908 3.35851 55.3497C2.7088 54.9714 2.5056 54.6546 2.44345 53.922L2.36349 52.9805L4.25365 53.615C5.46833 54.0228 7.08092 54.3066 8.76628 54.4092ZM33.9995 54.3308C37.4379 54.3308 38.0717 54.2569 39.9095 53.6416L41.9681 52.9524L41.9641 53.6551C41.9617 54.0416 41.8722 54.4909 41.7649 54.653C41.4355 55.1514 39.9523 55.8005 38.1963 56.2146C34.9283 56.9857 29.6149 56.5814 27.2792 55.3842C26.2476 54.8553 26.0401 54.5669 26.0348 53.6551L26.0308 52.9524L28.0894 53.6416C29.9272 54.2569 30.561 54.3308 33.9995 54.3308ZM53.9284 54.1097C56.956 54.7234 61.0476 54.5204 63.7198 53.6235L65.6354 52.9805L65.5555 53.922C65.4933 54.6546 65.2901 54.9714 64.6404 55.3497C61.8684 56.9637 54.4902 57.0288 51.2648 55.468C50.2015 54.9534 50.0605 54.7801 49.9874 53.8997L49.9054 52.9101L50.7965 53.2827C51.2868 53.4877 52.696 53.8598 53.9284 54.1097ZM10.2264 58.8615C13.8136 58.8615 14.4025 58.794 16.1365 58.1851L18.0622 57.5086V58.3959C18.0622 59.1098 17.8957 59.3847 17.209 59.8025C14.3271 61.5563 6.12575 61.5563 3.24376 59.8025C2.55713 59.3847 2.39059 59.1098 2.39059 58.3959V57.5086L4.31634 58.1851C6.05031 58.794 6.63919 58.8615 10.2264 58.8615ZM29.8845 58.6029C33.3729 59.3241 38.218 58.9756 41.0251 57.8018L41.9681 57.4076V58.1984C41.9681 60.0651 39.3031 61.0032 33.9995 61.0032C28.6958 61.0032 26.0308 60.0651 26.0308 58.1984V57.4076L26.9738 57.8018C27.4925 58.0187 28.8023 58.3791 29.8845 58.6029ZM57.7725 58.8615C61.3597 58.8615 61.9486 58.794 63.6826 58.1851L65.6083 57.5086V58.3959C65.6083 59.1098 65.4418 59.3847 64.7551 59.8025C61.8732 61.5563 53.6719 61.5563 50.7899 59.8025C50.1032 59.3847 49.9367 59.1098 49.9367 58.3959V57.5086L51.8624 58.1851C53.5964 58.794 54.1853 58.8615 57.7725 58.8615ZM10.2264 63.3843C13.7979 63.3774 14.4102 63.3069 16.1365 62.702L18.0622 62.0273V62.9146C18.0622 63.6286 17.8957 63.9034 17.209 64.3213C15.9189 65.1065 13.0677 65.6548 10.2766 65.6548C7.27323 65.6548 5.32596 65.318 3.71869 64.5204C2.67161 64.0007 2.51357 63.8088 2.44345 62.9725L2.36349 62.018L4.30279 62.7052C6.06412 63.329 6.60785 63.3915 10.2264 63.3843ZM29.8531 63.1358C32.8137 63.7891 37.3771 63.5831 40.0559 62.6754L41.9952 62.018L41.9152 62.9484C41.8485 63.7251 41.6658 63.9664 40.8084 64.41C39.1817 65.2519 37.0087 65.6466 33.9995 65.6466C30.9902 65.6466 28.8172 65.2519 27.1905 64.41C26.3214 63.9603 26.1512 63.7304 26.0816 62.913L25.9995 61.9476L26.8784 62.3104C27.3619 62.51 28.7003 62.8814 29.8531 63.1358ZM56.9839 63.4656C60.1418 63.594 61.0859 63.4582 65.0301 62.3072C65.5998 62.1411 65.6407 62.1964 65.5613 63.027C65.488 63.7955 65.3007 64.0137 64.2802 64.5204C62.6729 65.318 60.7257 65.6548 57.7223 65.6548C54.9312 65.6548 52.08 65.1065 50.7899 64.3213C50.1032 63.9034 49.9367 63.6286 49.9367 62.9146V62.0273L51.8624 62.6812C53.3345 63.1812 54.541 63.366 56.9839 63.4656Z" fill="#109CF8"/>
</svg>
