<svg width="66" height="66" viewBox="0 0 66 66" fill="none" xmlns="http://www.w3.org/2000/svg">
<path fill-rule="evenodd" clip-rule="evenodd" d="M12.1657 0.398247C10.3658 1.28597 9.56289 3.64617 10.4354 5.48587C11.6963 8.14464 15.519 8.43702 17.0987 5.99553L17.6545 5.13671L19.9112 5.13336L22.1679 5.13026V8.87211V12.614H19.5805C16.7327 12.614 15.5786 12.9435 14.3337 14.1115C13.0238 15.3403 12.6372 16.5677 12.631 19.517L12.6253 22.1621H6.61604C2.28603 22.1621 0.52039 22.2486 0.2973 22.4718C-0.158423 22.9278 -0.0792462 23.8276 0.459523 24.3156C0.869081 24.6867 1.69929 24.7427 6.77826 24.7427H12.6253V28.2265V31.7103L11.0134 31.7072C9.47159 31.7041 9.3772 31.6664 8.84565 30.845C6.80767 27.6954 1.79316 29.228 1.79316 33.0006C1.79316 36.7731 6.80767 38.3057 8.84565 35.1561C9.3772 34.3347 9.47159 34.297 11.0134 34.2939L12.6253 34.2908V37.7746V41.2584H6.73339C1.35292 41.2584 0.804346 41.2995 0.414647 41.7304C-0.0867255 42.2847 -0.139338 43.0924 0.2973 43.5293C0.520132 43.7523 2.28113 43.839 6.59386 43.839H12.5809L12.6676 46.7623C12.7473 49.4464 12.8125 49.7733 13.4658 50.7599C13.8571 51.3508 14.6607 52.1547 15.2516 52.5459C16.2357 53.1975 16.5713 53.2651 19.2471 53.35L22.1679 53.4429V57.1569V60.8708L19.9112 60.8678L17.6545 60.8644L17.0987 60.0056C15.519 57.5641 11.6963 57.8565 10.4354 60.5153C9.55335 62.3748 10.3771 64.7438 12.2077 65.6132C13.9695 66.4496 16.0807 65.8901 17.0987 64.3167L17.6545 63.4579L20.7739 63.4545C24.9726 63.4504 24.747 63.7629 24.747 57.9473V53.3872H28.2287H31.7105L31.7074 55C31.7043 56.5427 31.6666 56.6371 30.8457 57.169C28.4366 58.7295 28.6955 62.5735 31.2929 63.8068C32.4148 64.3394 33.5852 64.3394 34.7071 63.8068C37.3045 62.5735 37.5634 58.7295 35.1543 57.169C34.3334 56.6371 34.2957 56.5427 34.2926 55L34.2895 53.3872H37.7713H41.253V57.9922C41.253 63.7655 41.0212 63.4501 45.271 63.4545L48.3455 63.4579L48.9013 64.3167C50.481 66.7582 54.3037 66.4658 55.5646 63.807C56.4467 61.9475 55.6229 59.5785 53.7923 58.7091C52.0305 57.8727 49.9193 58.4322 48.9013 60.0056L48.3455 60.8644L46.0888 60.8678L43.8321 60.8708V57.1512V53.4315L46.7537 53.3448C49.4362 53.2651 49.763 53.1998 50.749 52.5462C51.3396 52.1547 52.1429 51.3508 52.5342 50.7599C53.1875 49.7733 53.2527 49.4464 53.3324 46.7623L53.4191 43.839H59.4061C63.7189 43.839 65.4799 43.7523 65.7027 43.5293C66.1584 43.0733 66.0792 42.1735 65.5405 41.6855C65.1309 41.3144 64.3007 41.2584 59.2217 41.2584H53.3747V37.7746V34.2908L54.9866 34.2939C56.5284 34.297 56.6228 34.3347 57.1544 35.1561C58.7077 37.5568 62.4505 37.3486 63.755 34.7886C65.4665 31.4305 62.0296 27.9351 58.6118 29.5578C58.1158 29.7934 57.46 30.3725 57.1544 30.845C56.6228 31.6664 56.5284 31.7041 54.9866 31.7072L53.3747 31.7103V28.2265V24.7427H59.2666C64.6471 24.7427 65.1957 24.7017 65.5854 24.2707C66.0867 23.7164 66.1393 22.9087 65.7027 22.4718C65.4796 22.2486 63.714 22.1621 59.384 22.1621H53.3747V19.5733C53.3747 16.7238 53.0454 15.569 51.8781 14.3233C50.6499 13.0127 49.4233 12.6258 46.4757 12.6196L43.8321 12.614V8.87211V5.13026L46.0888 5.13336L48.3455 5.13671L48.9013 5.99553C49.9193 7.56891 52.0305 8.12838 53.7923 7.29202C55.6229 6.42262 56.4467 4.05364 55.5646 2.19408C54.3037 -0.464699 50.481 -0.757079 48.9013 1.68441L48.3455 2.54323L45.2261 2.54658C41.0274 2.55071 41.253 2.2382 41.253 8.0538V12.614H37.7713H34.2895L34.2926 11.0011C34.2957 9.45842 34.3334 9.36397 35.1543 8.83211C36.7268 7.81355 37.2859 5.70109 36.45 3.93829C35.5811 2.10659 33.2135 1.28236 31.3551 2.16491C28.6978 3.42656 28.4056 7.2515 30.8457 8.83211C31.6666 9.36397 31.7043 9.45842 31.7074 11.0011L31.7105 12.614H28.2287H24.747V8.0089C24.747 2.23562 24.9788 2.55097 20.729 2.54658L17.6545 2.54323L17.0987 1.68441C16.0802 0.109996 13.9017 -0.45799 12.1657 0.398247ZM14.7327 2.97677C15.3178 3.50682 15.3323 4.04487 14.7775 4.65827C14.2478 5.24381 13.7101 5.25826 13.097 4.70318C12.5118 4.17312 12.4974 3.63507 13.0521 3.02167C13.5819 2.43613 14.1196 2.42168 14.7327 2.97677ZM52.903 2.97677C53.4882 3.50682 53.5026 4.04487 52.9479 4.65827C52.4181 5.24381 51.8804 5.25826 51.2673 4.70318C50.6822 4.17312 50.6677 3.63507 51.2225 3.02167C51.7522 2.43613 52.29 2.42168 52.903 2.97677ZM33.8178 4.78317C34.403 5.31323 34.4175 5.85128 33.8627 6.46468C33.333 7.05022 32.7952 7.06467 32.1822 6.50958C31.597 5.97953 31.5825 5.44148 32.1373 4.82808C32.667 4.24254 33.2048 4.22809 33.8178 4.78317ZM49.2812 15.5987C50.8044 16.3868 50.7956 16.2859 50.7956 33.0178C50.7956 46.3793 50.7451 48.3837 50.3889 49.1349C49.5793 50.8414 49.9422 50.8066 33 50.8066C16.0578 50.8066 16.4207 50.8414 15.6111 49.1349C15.2549 48.3837 15.2044 46.3835 15.2044 33.0646C15.2044 22.4166 15.2918 17.6009 15.4961 17.0151C15.6565 16.5548 16.1496 15.9574 16.5922 15.6874C17.3592 15.2193 18.1182 15.1963 32.9484 15.1956C46.5621 15.1945 48.5975 15.2449 49.2812 15.5987ZM19.082 19.3064C18.9079 19.6321 18.8151 24.4276 18.8151 33.0942C18.8151 44.8307 18.8625 46.4302 19.2202 46.7884C19.5785 47.1465 21.1852 47.1938 33 47.1938C44.8148 47.1938 46.4215 47.1465 46.7798 46.7884C47.1375 46.4302 47.1849 44.8307 47.1849 33.0942C47.1849 24.4276 47.0921 19.6321 46.918 19.3064C46.6707 18.844 46.339 18.8074 42.4105 18.8074C38.1718 18.8074 38.1698 18.8076 37.7476 19.4525C37.3563 20.0502 37.3563 20.1451 37.7476 20.7428C38.1607 21.374 38.2402 21.3879 41.3879 21.3879H44.6059V33.0006V44.6132H33H21.3942V33.0006V21.3879H24.6121C27.7598 21.3879 27.8393 21.374 28.2524 20.7428C28.6437 20.1451 28.6437 20.0502 28.2524 19.4525C27.8302 18.8076 27.8282 18.8074 23.5895 18.8074C19.661 18.8074 19.3293 18.844 19.082 19.3064ZM31.9555 19.3475C31.3334 20.5108 32.2673 21.6553 33.5153 21.2592C34.7538 20.8656 34.3213 18.8074 33 18.8074C32.4971 18.8074 32.1479 18.988 31.9555 19.3475ZM29.2815 27.1297C28.8402 27.8084 25.0049 37.8064 25.0049 38.2781C25.0049 38.7571 25.8761 39.452 26.4765 39.452C27.1169 39.452 27.4117 39.1083 27.8609 37.8391L28.2034 36.8714H30.4194H32.6356L33.0346 37.9682C33.5326 39.3374 34.5018 39.8068 35.3134 39.0719C35.6013 38.8113 35.837 38.4569 35.837 38.2848C35.837 37.7055 31.9052 27.4569 31.508 27.0007C30.9427 26.3514 29.7424 26.4208 29.2815 27.1297ZM38.7005 26.9039C38.4942 27.1527 38.4269 29.0231 38.4756 33.1559L38.545 39.0528L39.2465 39.2995C39.8021 39.4949 40.0566 39.4476 40.4716 39.0719C40.9673 38.6231 40.9951 38.298 40.9951 32.9789C40.9951 28.2151 40.9335 27.2985 40.59 26.9545C40.0899 26.4544 39.0956 26.4278 38.7005 26.9039ZM31.0159 32.678C31.2576 33.3523 31.4546 33.991 31.4538 34.0973C31.4531 34.2036 30.9883 34.2908 30.4209 34.2908C29.8535 34.2908 29.3888 34.2036 29.388 34.0973C29.3854 33.7136 30.2685 31.4522 30.4209 31.4522C30.5068 31.4522 30.7745 32.0037 31.0159 32.678ZM6.47961 32.1374C7.0648 32.6674 7.07924 33.2055 6.52448 33.8189C5.99474 34.4044 5.457 34.4188 4.84396 33.8638C4.25876 33.3337 4.24432 32.7957 4.79908 32.1823C5.32882 31.5967 5.86656 31.5823 6.47961 32.1374ZM61.156 32.1374C61.7412 32.6674 61.7557 33.2055 61.2009 33.8189C60.6712 34.4044 60.1334 34.4188 59.5204 33.8638C58.9352 33.3337 58.9208 32.7957 59.4755 32.1823C60.0053 31.5967 60.543 31.5823 61.156 32.1374ZM33.8178 59.4915C34.403 60.0216 34.4175 60.5596 33.8627 61.173C33.333 61.7586 32.7952 61.773 32.1822 61.2179C31.597 60.6879 31.5825 60.1498 32.1373 59.5364C32.667 58.9509 33.2048 58.9364 33.8178 59.4915ZM14.7327 61.2979C15.3178 61.828 15.3323 62.366 14.7775 62.9794C14.2478 63.565 13.7101 63.5794 13.097 63.0243C12.5118 62.4943 12.4974 61.9562 13.0521 61.3428C13.5819 60.7573 14.1196 60.7429 14.7327 61.2979ZM52.903 61.2979C53.4882 61.828 53.5026 62.366 52.9479 62.9794C52.4181 63.565 51.8804 63.5794 51.2673 63.0243C50.6822 62.4943 50.6677 61.9562 51.2225 61.3428C51.7522 60.7573 52.29 60.7429 52.903 61.2979Z" fill="#109CF8"/>
</svg>
